<svg width="494" height="37" viewBox="0 0 494 37" fill="none" xmlns="http://www.w3.org/2000/svg">
<path d="M12.736 36.48C10.624 36.48 8.496 36.256 6.352 35.808C4.24 35.36 2.448 34.752 0.976 33.984L2.032 30.528C3.024 31.008 4.128 31.44 5.344 31.824C6.592 32.176 7.872 32.464 9.184 32.688C10.496 32.88 11.76 32.976 12.976 32.976C15.792 32.976 17.952 32.432 19.456 31.344C20.992 30.256 21.76 28.72 21.76 26.736C21.76 25.616 21.52 24.688 21.04 23.952C20.592 23.184 19.936 22.56 19.072 22.08C18.208 21.568 17.168 21.12 15.952 20.736C14.768 20.352 13.472 19.968 12.064 19.584C10.528 19.168 9.104 18.704 7.792 18.192C6.48 17.648 5.312 17.008 4.288 16.272C3.296 15.504 2.512 14.592 1.936 13.536C1.392 12.448 1.12 11.152 1.12 9.648C1.12 6.704 2.224 4.448 4.432 2.88C6.64 1.28 9.744 0.48 13.744 0.48C15.792 0.48 17.824 0.687999 19.84 1.104C21.888 1.488 23.6 2.016 24.976 2.688L23.92 6.144C22.576 5.504 20.992 4.992 19.168 4.608C17.344 4.192 15.52 3.984 13.696 3.984C10.912 3.984 8.784 4.48 7.312 5.472C5.84 6.464 5.104 7.872 5.104 9.696C5.104 10.752 5.328 11.632 5.776 12.336C6.224 13.04 6.848 13.632 7.648 14.112C8.48 14.592 9.44 15.024 10.528 15.408C11.648 15.76 12.896 16.128 14.272 16.512C15.872 16.96 17.36 17.456 18.736 18C20.144 18.512 21.36 19.152 22.384 19.92C23.44 20.688 24.272 21.632 24.88 22.752C25.488 23.84 25.792 25.184 25.792 26.784C25.792 29.824 24.64 32.208 22.336 33.936C20.064 35.632 16.864 36.48 12.736 36.48ZM46.0202 36V4.464H33.4442V0.959999H62.5802V4.464H50.0043V36H46.0202ZM73.3296 36V0.959999H83.3616C88.4496 0.959999 92.1616 1.776 94.4976 3.408C96.8336 5.008 98.0016 7.568 98.0016 11.088C98.0016 14.576 96.8656 17.168 94.5936 18.864C92.3216 20.528 88.8016 21.36 84.0336 21.36H75.2496V18H83.5536C87.2656 18 89.9376 17.472 91.5696 16.416C93.2336 15.328 94.0656 13.6 94.0656 11.232C94.0656 8.864 93.2336 7.152 91.5696 6.096C89.9376 5.008 87.2656 4.464 83.5536 4.464H77.1696V36H73.3296ZM94.6416 36L77.0736 19.872H82.0176L99.7296 36H94.6416ZM126.029 36.48C122.445 36.48 119.293 35.744 116.573 34.272C113.885 32.768 111.805 30.672 110.333 27.984C108.861 25.264 108.125 22.096 108.125 18.48C108.125 14.832 108.861 11.664 110.333 8.976C111.805 6.288 113.885 4.208 116.573 2.736C119.293 1.232 122.445 0.48 126.029 0.48C129.677 0.48 132.829 1.232 135.485 2.736C138.173 4.208 140.253 6.288 141.725 8.976C143.229 11.664 143.981 14.832 143.981 18.48C143.981 22.096 143.229 25.264 141.725 27.984C140.253 30.672 138.173 32.768 135.485 34.272C132.829 35.744 129.677 36.48 126.029 36.48ZM126.029 32.976C128.877 32.976 131.341 32.384 133.421 31.2C135.533 29.984 137.165 28.304 138.317 26.16C139.469 23.984 140.045 21.424 140.045 18.48C140.045 15.536 139.469 12.992 138.317 10.848C137.165 8.672 135.533 6.992 133.421 5.808C131.341 4.592 128.877 3.984 126.029 3.984C123.213 3.984 120.749 4.592 118.637 5.808C116.525 6.992 114.893 8.672 113.741 10.848C112.621 12.992 112.061 15.536 112.061 18.48C112.061 21.424 112.621 23.984 113.741 26.16C114.893 28.304 116.525 29.984 118.637 31.2C120.749 32.384 123.213 32.976 126.029 32.976ZM155.492 36V0.959999H159.86L178.772 29.904H178.868V0.959999H182.708V36H178.388L159.428 7.056H159.332V36H155.492ZM212.993 36.48C209.089 36.48 205.729 35.76 202.913 34.32C200.129 32.88 197.985 30.816 196.481 28.128C194.977 25.408 194.225 22.192 194.225 18.48C194.225 14.736 194.977 11.52 196.481 8.832C197.985 6.144 200.113 4.08 202.865 2.64C205.649 1.2 208.961 0.48 212.801 0.48C214.913 0.48 216.913 0.719999 218.801 1.2C220.689 1.648 222.401 2.352 223.937 3.312L222.929 6.624C221.521 5.76 219.937 5.104 218.177 4.656C216.449 4.208 214.657 3.984 212.801 3.984C209.793 3.984 207.201 4.56 205.025 5.712C202.881 6.864 201.217 8.528 200.033 10.704C198.881 12.848 198.305 15.44 198.305 18.48C198.305 21.52 198.881 24.128 200.033 26.304C201.217 28.448 202.897 30.096 205.073 31.248C207.281 32.4 209.921 32.976 212.993 32.976C214.689 32.976 216.369 32.8 218.033 32.448C219.729 32.096 221.201 31.6 222.449 30.96L221.729 32.448V19.536H208.625V16.224H225.569V33.792C223.905 34.624 221.953 35.28 219.713 35.76C217.473 36.24 215.233 36.48 212.993 36.48Z" fill="#3E45E8"/>
<path d="M270.467 36.48C266.019 36.48 262.627 35.44 260.291 33.36C257.987 31.248 256.835 28.176 256.835 24.144V0.959999H260.675V23.52C260.675 26.752 261.475 29.136 263.075 30.672C264.675 32.208 267.139 32.976 270.467 32.976C273.795 32.976 276.243 32.208 277.811 30.672C279.411 29.136 280.211 26.752 280.211 23.52V0.959999H284.051V24.144C284.051 28.176 282.899 31.248 280.595 33.36C278.291 35.44 274.915 36.48 270.467 36.48ZM297.364 36V0.959999H301.204V16.32H301.3L319.732 0.959999H324.724L305.044 17.52L325.204 36H320.212L301.3 18.768H301.204V36H297.364ZM335.68 36V0.959999H345.712C350.8 0.959999 354.512 1.776 356.848 3.408C359.184 5.008 360.352 7.568 360.352 11.088C360.352 14.576 359.216 17.168 356.944 18.864C354.672 20.528 351.152 21.36 346.384 21.36H337.6V18H345.904C349.616 18 352.288 17.472 353.92 16.416C355.584 15.328 356.416 13.6 356.416 11.232C356.416 8.864 355.584 7.152 353.92 6.096C352.288 5.008 349.616 4.464 345.904 4.464H339.52V36H335.68ZM356.992 36L339.424 19.872H344.368L362.08 36H356.992ZM369.456 36L382.848 0.959999H388.08L401.472 36H397.248L385.488 4.272H385.392L373.68 36H369.456ZM375.648 26.352V22.848H395.328V26.352H375.648ZM411.994 36V0.959999H415.978V36H411.994ZM430.189 36V0.959999H434.557L453.469 29.904H453.565V0.959999H457.405V36H453.085L434.125 7.056H434.029V36H430.189ZM471.13 36V0.959999H493.402V4.416H474.97V15.84H492.442V19.248H474.97V32.544H493.402V36H471.13Z" fill="#E8C23E"/>
</svg>
